<svg xmlns="http://www.w3.org/2000/svg" viewBox="0 0 252.78 252.78">
  <defs>
    <style>
      .cls-1,
      .cls-2 {
        fill: none;
        stroke-miterlimit: 10;
      }
      .cls-1 {
        stroke: #231f20;
        stroke-width: 0.25px;
      }
      .cls-2 {
        stroke: #fff;
      }
      .cls-3 {
        fill: #231f20;
      }
    </style>
  </defs>
  <title>Asset 1</title>
  <g id="Layer_2" data-name="Layer 2">
    <g id="homepage">
      <g id="feat.content">
        <g id="logo.img">
          <g id="featlogo">
            <g id="biglogo">
              <g id="curvedtext"><path
                class="cls-1"
                d="M68.3,186.29q-2.48.16-5,.57-2.13-1-4.17-2.1A56,56,0,0,0,43,189.82a61.48,61.48,0,0,1-6.31-4.27,59.28,59.28,0,0,1,16.54-4.65q-1.88-1.41-3.65-3,2.63-.29,5.21-.34,1.74,1.53,3.59,2.9A53.81,53.81,0,0,1,85,186.42a51,51,0,0,0,5.61,3.47,51.49,51.49,0,0,0-26.39-5.64Q66.19,185.36,68.3,186.29Z"/><path
                class="cls-1"
                d="M54.43,153.75q10.11,9.29,19.75,18.9l.06.11a25,25,0,0,0-10.6,3.05c-3.41-1.57-8.56-3.91-15.6-6.75s-12.46-4.74-16.08-6l-.08-.14a56.11,56.11,0,0,1,7.68-6.21,49.57,49.57,0,0,1,8.07-4.39q1.07-.47,2.15-.88,1.28.38,2.53.8A53.2,53.2,0,0,0,61,170.49a33,33,0,0,1,9.25-.1l-.07-.11c-1.6-1.34-4-3.33-7.34-5.89s-5.93-4.4-7.68-5.62A42.3,42.3,0,0,1,54.43,153.75Zm-4.7,4.45a49.67,49.67,0,0,0-12.19,4.41l.08.13a162,162,0,0,1,18.5,6.67A55.26,55.26,0,0,1,49.73,158.2Z"/><path
                class="cls-1"
                d="M64.55,152.48a79.23,79.23,0,0,0-35.07-11.1,66.24,66.24,0,0,1-.86-7.4,90.17,90.17,0,0,1,11.72,2.16c-1.82-1-4.63-2.6-8.58-4.47s-7-3.12-9.09-3.91v-.11a82.6,82.6,0,0,1,19.12-7q1.2,3,2.53,6c-1.65,0-4.15.13-7.57.5s-6,.87-7.77,1.21v.11c1.7.86,4.26,2.19,7.52,4.09s5.61,3.43,7.16,4.46a80.6,80.6,0,0,1,20.56,9.32A47.11,47.11,0,0,0,64.55,152.48Z"/><path
                class="cls-1"
                d="M78.21,112.45A56.94,56.94,0,0,0,74,117.64q-2.74-2.3-5.76-4.48,3.56,6.22,6.57,12.52l-.07.11a71.31,71.31,0,0,0-8.14.91,69.23,69.23,0,0,0-8,1.87c-1-2.09-2.58-5.24-4.61-9.45s-3.52-7.37-4.52-9.47l.07-.14a96.53,96.53,0,0,1,14.94,1.08,108.08,108.08,0,0,0-11.9-6.72c-2-.18-5-.39-9-.38s-7.22.27-9.33.47l-.06.15q6.65,5.33,12.61,11.05-2.8,1.22-5.5,2.64Q34.58,110,27.47,102.44l.06-.16a107.93,107.93,0,0,1,14.66-3.39,104.28,104.28,0,0,1,14.63-1.28A107.63,107.63,0,0,1,78.21,112.45Zm-23.08-.23-.07.13q2.89,5,5.63,10c1.1-.09,2.76-.19,4.94-.2s3.8.08,4.86.14l.07-.12c-.46-1.13-1.15-2.84-2.1-5.13s-1.67-4-2.15-5.17A90.91,90.91,0,0,0,55.13,112.22Z"/><path
                class="cls-1"
                d="M84.6,106.46c-14-13.8-34.48-25.74-59.89-31.78q2.72-3.79,5.88-7.4A142.08,142.08,0,0,1,71,85.91c-1.64-2.25-4.17-5.58-7.93-9.89s-6.87-7.47-8.92-9.57l.15-.12a139.15,139.15,0,0,1,42.84,9A253.3,253.3,0,0,1,101,102.74l-.14.06a111,111,0,0,0-11.3-6.95,104.54,104.54,0,0,0-12.68-5.75,112.28,112.28,0,0,1,13.53,12.16A65.05,65.05,0,0,0,84.6,106.46ZM61.19,69.8l-.15.11c1.58,2,3.95,5,6.83,9S72.7,86,74,88A114,114,0,0,1,96.93,98l.14-.07a156.65,156.65,0,0,0-7.9-19.27,127.23,127.23,0,0,0-13.49-5.12A145.82,145.82,0,0,0,61.19,69.8Z"/><path
                class="cls-1"
                d="M68.06,40.49A166,166,0,0,1,87.6,43.2l.25,9.87c-2-.39-5-1-9.09-1.52s-7.18-.82-9.22-1Q68.8,45.53,68.06,40.49Zm51.2,51A134.54,134.54,0,0,0,84.89,56.06q4.57-1.8,9.42-3.24a136.19,136.19,0,0,1,33.15,37.84A81.13,81.13,0,0,0,119.26,91.5Z"/><path
                class="cls-1"
                d="M107,56.55q-2.92-2.78-6.06-5.48,3.31-.77,6.72-1.35A172.06,172.06,0,0,0,86.27,33q5.41-1.57,11.08-2.72a173,173,0,0,1,20.83,18.13q3.53-.29,7.13-.38,2.89,3.19,5.53,6.45-3.51-.05-7,.1a135.91,135.91,0,0,1,23.65,37.51,83.91,83.91,0,0,0-8.69-1.21,134.71,134.71,0,0,0-25.22-35.39Q110.29,55.91,107,56.55Z"/><path
                class="cls-1"
                d="M160.82,95.78c-7.22-23.58-22.44-47.45-45.77-67.93q6-.43,12.07-.37a167.37,167.37,0,0,1,26.52,33.58c-.3-1.89-.73-4.71-1.42-8.5s-1.35-6.66-1.79-8.59l.16,0a151.86,151.86,0,0,1,16.05,13.84,143.9,143.9,0,0,1,13.74,15.77A144.59,144.59,0,0,1,189,113.08a85.78,85.78,0,0,0-7.87-6.45A140.74,140.74,0,0,0,170.17,69c-1.42-2-3.62-5-6.84-8.94s-5.86-6.7-7.62-8.54l-.16,0c0,1.45.08,3.63.09,6.52s0,5,0,6.44a136.89,136.89,0,0,1,13.84,35.08A84.25,84.25,0,0,0,160.82,95.78Z"/><path
                class="cls-1"
                d="M176.27,37.28a161.49,161.49,0,0,1,17.37,17.66l-5.16,6.82c-1.67-2-4.25-5-8-8.72s-6.66-6.37-8.62-8.09Zm20.18,83.63A152.38,152.38,0,0,0,184,61.2a120.68,120.68,0,0,1,10.7,6.1,157.92,157.92,0,0,1,8.41,62.54A91.94,91.94,0,0,0,196.45,120.91Z"/><path
                class="cls-1"
                d="M220.93,188.57a145.46,145.46,0,0,0-1.61-15.26q2.16-6.61,3.86-13.31-4.44,5.55-9.1,10.61l-.06-.29a157.17,157.17,0,0,0-.42-24.64,139.41,139.41,0,0,0-4.1-22.69c1.47-.64,3.69-1.58,6.66-2.8l6.68-2.71.15.25a168.71,168.71,0,0,1,2.07,34.16,195,195,0,0,0,3.48-23.63,164.07,164.07,0,0,0-2.43-18.67,161.06,161.06,0,0,0-4.48-18l-.19-.22q-2.09,8.37-4.78,16.27a140.06,140.06,0,0,0-5.6-13.09q4.5-6.66,8.73-13.68l.2.21a161.08,161.08,0,0,1,9.69,29,169.61,169.61,0,0,1,4.22,31.72A218.4,218.4,0,0,1,220.93,188.57Zm1.53-60.38-.13-.26q-3.27,3-6.59,5.81c.38,2.86.89,7.16,1.15,13.06s.14,10.44,0,13.44l.08.28,3.58-2.33c1.6-1,2.8-1.81,3.6-2.3A165,165,0,0,0,222.46,128.19Z"/></g><circle class="cls-2" cx="126.39" cy="126.39" r="125.89"/>
              <g id="logomark"><path
                class="cls-3"
                d="M138.72,182.73c-5.19-11-10.76-21-14.29-24.11a9.3,9.3,0,0,1-2.1-2.11c-2.74-3.82-6.08-10.09-8.43-14.42a28.68,28.68,0,0,1-1.43-3.2c-2-6.55.6-16-2.54-21a5.42,5.42,0,0,0-2.27-2.35c-2.66-1.08-6.52,1.43-11,18.94,5.6-22.2,11-28.09,16.23-25.62a12.35,12.35,0,0,1,3.94,3.31c4.94,5.71,9.77,18.37,14.39,26.28a11.28,11.28,0,0,0,3,3.64c.82.52,1.46.36,1.88-.4.21,3,.54,6.19,1.1,9.7.28,1.75.63,3.58,1.05,5.48,1.47,6.73,5.23,17.52,9.41,17.77,1.25,0,2.67-.8,4.27-3.29,1.85-2.67,4.21-8.11,6.57-19.51-.46,2-1,4.3-1.48,6.1-.92,3.7-1.88,7.12-2.86,10a36.89,36.89,0,0,1-3.55,7.83c-4.9,8.62-11.49,1.35-12.28,5.32Z"/></g>
            </g>
          </g>
        </g>
      </g>
    </g>
  </g>
</svg>
